Coordinates
version=1
nRows=13
nColumns=26
inDegrees=yes

Units are S.I. units (second, meters, Newtons, ...)
Angles are in degrees.

endheader
time	pelvis_tilt	pelvis_list	pelvis_rotation	pelvis_tx	pelvis_ty	pelvis_tz	hip_flexion_r	hip_adduction_r	hip_rotation_r	knee_angle_r	knee_angle_r_beta	ankle_angle_r	subtalar_angle_r	mtp_angle_r	hip_flexion_l	hip_adduction_l	hip_rotation_l	knee_angle_l	knee_angle_l_beta	ankle_angle_l	subtalar_angle_l	mtp_angle_l	lumbar_extension	lumbar_bending	lumbar_rotation
      0.26666667	      8.20205975	     -0.48193742	     -1.84191859	      0.44368491	      1.01951588	      0.22897743	      5.93321000	     -6.03550685	     -5.39458071	     60.47015896	     60.47015896	      2.17045371	      0.00000000	      0.00000000	     -0.06130104	      1.58371367	    -10.49212431	     12.50895084	     12.50895084	      3.72237678	      0.00000000	      0.00000000	    -19.49235749	     -1.60353180	      2.49878157
      0.27500000	      8.10343848	     -0.66360186	     -1.51364952	      0.45152350	      1.02059880	      0.22883155	      6.88795541	     -5.86887978	     -5.87410110	     59.87272774	     59.87272774	      2.48667435	      0.00000000	      0.00000000	     -0.61284182	      1.41616441	    -10.08399712	     12.21475334	     12.21475334	      3.90310717	      0.00000000	      0.00000000	    -19.41883274	     -1.35058646	      2.41755756
      0.28333333	      7.95918606	     -0.84342119	     -1.28484175	      0.45926859	      1.02140011	      0.22888589	      7.89481742	     -5.61212349	     -6.16522337	     59.11302083	     59.11302083	      2.46974292	      0.00000000	      0.00000000	     -1.09340743	      1.23748187	     -9.78269831	     11.96979457	     11.96979457	      4.16116316	      0.00000000	      0.00000000	    -19.30378568	     -1.11866488	      2.40889047
      0.29166667	      7.83845597	     -0.98819165	     -1.06554108	      0.46691024	      1.02211089	      0.22880549	      8.82665784	     -5.37555910	     -6.36814942	     58.21887590	     58.21887590	      2.69413529	      0.00000000	      0.00000000	     -1.50182014	      1.10470703	     -9.52658567	     11.89250658	     11.89250658	      4.47922857	      0.00000000	      0.00000000	    -19.23743019	     -0.89909967	      2.37507540
      0.30000000	      7.76000521	     -1.07161328	     -0.88935367	      0.47459924	      1.02277161	      0.22876245	      9.65317818	     -5.17125617	     -6.52078718	     57.13230969	     57.13230969	      2.85051688	      0.00000000	      0.00000000	     -2.02608842	      1.06270396	     -9.30710659	     11.68545831	     11.68545831	      4.77000507	      0.00000000	      0.00000000	    -19.18915978	     -0.77211916	      2.43612957
      0.30833333	      7.72120401	     -1.14241960	     -0.67610266	      0.48231404	      1.02326820	      0.22858131	     10.42485950	     -4.99986194	     -6.68544212	     55.98916729	     55.98916729	      3.26198716	      0.00000000	      0.00000000	     -2.61788737	      1.01985596	     -9.03284239	     11.44340407	     11.44340407	      5.09569261	      0.00000000	      0.00000000	    -19.19136650	     -0.63274405	      2.42815091
      0.31666667	      7.68189150	     -1.19407653	     -0.42907514	      0.49007596	      1.02364479	      0.22844293	     11.15121549	     -4.84654015	     -6.89011926	     54.71402273	     54.71402273	      3.59546141	      0.00000000	      0.00000000	     -3.19183355	      0.98404695	     -8.75594577	     11.23149487	     11.23149487	      5.46839160	      0.00000000	      0.00000000	    -19.18746010	     -0.51886804	      2.39543180
      0.32500000	      7.64958843	     -1.24695221	     -0.14097521	      0.49790173	      1.02388157	      0.22832366	     11.79343558	     -4.66091481	     -7.07104869	     53.26835262	     53.26835262	      3.72150547	      0.00000000	      0.00000000	     -3.73452122	      0.93005151	     -8.51219815	     11.07012185	     11.07012185	      5.78271807	      0.00000000	      0.00000000	    -19.18531707	     -0.40207468	      2.32471886
      0.33333333	      7.60812548	     -1.30794095	      0.14658949	      0.50566037	      1.02394075	      0.22822094	     12.38828112	     -4.43314783	     -7.18686215	     51.67814788	     51.67814788	      3.91077105	      0.00000000	      0.00000000	     -4.25125147	      0.83349014	     -8.22476897	     10.98650968	     10.98650968	      6.09058894	      0.00000000	      0.00000000	    -19.18215798	     -0.27424472	      2.24362375
      0.34166667	      7.42439837	     -1.35116303	      0.50202668	      0.51302539	      1.02352910	      0.22811648	     13.13149611	     -4.19545763	     -7.23946263	     50.00969550	     50.00969550	      3.88389577	      0.00000000	      0.00000000	     -4.47881606	      0.73220472	     -7.82803403	     11.10989677	     11.10989677	      6.64138993	      0.00000000	      0.00000000	    -19.05865736	     -0.16421284	      2.11216546
      0.35000000	      7.34235174	     -1.42103589	      0.71631599	      0.52068420	      1.02324264	      0.22807136	     13.66366598	     -3.90935104	     -7.23874017	     48.13125840	     48.13125840	      3.85258495	      0.00000000	      0.00000000	     -4.92829471	      0.61210072	     -7.58128066	     11.09466368	     11.09466368	      7.00767987	      0.00000000	      0.00000000	    -19.01883085	     -0.04265083	      2.13314614
      0.35833333	      7.20016027	     -1.44479500	      0.93811991	      0.52822303	      1.02272373	      0.22810817	     14.22303086	     -3.66351971	     -7.21575106	     46.15409632	     46.15409632	      3.81472389	      0.00000000	      0.00000000	     -5.27862138	      0.54675473	     -7.36467819	     11.09324491	     11.09324491	      7.42541047	      0.00000000	      0.00000000	    -18.92587462	      0.02087150	      2.11827192
      0.36666667	      7.01352822	     -1.43375498	      1.19331075	      0.53567611	      1.02200259	      0.22816952	     14.76120813	     -3.45740192	     -7.19381440	     44.03694490	     44.03694490	      3.64954330	      0.00000000	      0.00000000	     -5.51139959	      0.48993684	     -7.08438353	     11.22926267	     11.22926267	      7.92593736	      0.00000000	      0.00000000	    -18.79679217	      0.05202185	      2.06957395
